<svg width="259" height="261" viewBox="0 0 259 261" fill="none" xmlns="http://www.w3.org/2000/svg">
<rect width="259" height="261" fill="#1E1E1E"/>
<rect x="2.5" y="2.5" width="254" height="256" rx="7.5" fill="#00C2FF" stroke="#3A3636" stroke-width="5"/>
<path d="M172.699 77.0947C172.699 77.3617 172.566 77.762 172.299 78.2959C172.032 78.763 171.698 79.2635 171.298 79.7974C170.897 80.2645 170.464 80.7316 169.997 81.1987C169.596 81.6659 169.229 82.0329 168.896 82.2998C168.629 82.5 168.262 82.6335 167.794 82.7002C167.327 82.7669 166.96 82.9004 166.693 83.1006C166.16 83.5677 165.592 84.1016 164.992 84.7021C164.458 85.3027 163.924 85.87 163.39 86.4038C162.856 86.9377 162.322 87.4048 161.789 87.8052C161.321 88.1388 160.854 88.3057 160.387 88.3057C158.652 88.3057 157.017 87.9386 155.482 87.2046C154.014 86.4038 152.346 85.5697 150.478 84.7021C148.609 83.7679 146.374 82.9338 143.771 82.1997C141.235 81.3989 137.965 80.9985 133.961 80.9985C132.627 80.9985 131.292 81.1654 129.958 81.499C128.623 81.766 127.388 82.2998 126.254 83.1006C125.32 83.8346 124.385 84.7689 123.451 85.9033C122.517 87.0378 121.483 88.1055 120.348 89.1064C119.681 89.707 118.98 90.1408 118.246 90.4077C117.512 90.6746 116.978 90.9749 116.645 91.3086C116.244 91.709 115.844 92.3096 115.443 93.1104C115.11 93.9111 114.743 94.5785 114.342 95.1123C113.542 96.1133 112.908 96.9474 112.44 97.6147C111.973 98.2153 111.373 99.1162 110.639 100.317C110.438 100.651 110.172 100.918 109.838 101.118C109.571 101.252 109.337 101.485 109.137 101.819C108.937 102.086 108.804 102.453 108.737 102.92C108.737 103.32 108.603 103.687 108.336 104.021C108.069 104.421 107.836 104.755 107.636 105.022C107.436 105.222 107.202 105.589 106.935 106.123C106.735 106.657 106.435 107.458 106.034 108.525C105.701 109.526 105.233 111.028 104.633 113.03C104.566 113.297 104.399 114.097 104.132 115.432C103.865 116.7 103.532 117.901 103.131 119.036C102.931 119.569 102.497 120.203 101.83 120.938C101.163 121.672 100.829 122.572 100.829 123.64C100.829 124.107 100.862 124.641 100.929 125.242C100.996 125.842 101.029 126.476 101.029 127.144C101.029 128.278 100.762 129.279 100.229 130.146C99.6947 130.947 99.4277 131.815 99.4277 132.749C99.4277 133.483 99.5278 134.384 99.728 135.452C99.995 136.453 100.162 137.42 100.229 138.354C100.295 139.956 100.329 141.591 100.329 143.259C100.395 144.928 100.495 146.596 100.629 148.264C100.762 149.866 100.963 151.434 101.229 152.969C101.496 154.504 101.897 155.905 102.431 157.173V157.373C102.431 157.507 102.397 157.673 102.331 157.874C102.331 158.007 102.331 158.14 102.331 158.274C102.331 158.474 102.364 158.574 102.431 158.574C102.965 159.041 103.332 159.709 103.532 160.576C103.799 161.377 104.099 162.345 104.433 163.479C104.766 164.547 105.267 165.715 105.934 166.982C106.601 168.184 107.669 169.385 109.137 170.586C109.738 171.12 110.572 171.587 111.64 171.987C112.774 172.388 113.909 172.922 115.043 173.589C116.244 174.323 117.345 175.09 118.346 175.891C119.347 176.692 120.014 177.159 120.348 177.292C121.082 177.493 122.15 177.66 123.551 177.793C125.019 177.86 126.521 177.893 128.056 177.893C130.058 177.893 131.759 177.86 133.161 177.793C134.562 177.66 135.83 177.459 136.964 177.192C138.099 176.925 139.167 176.558 140.167 176.091C141.168 175.624 142.27 175.024 143.471 174.29C143.938 174.023 144.472 173.789 145.072 173.589C145.673 173.389 146.14 173.122 146.474 172.788C147.074 172.254 147.608 171.52 148.075 170.586C148.609 169.652 149.343 168.918 150.277 168.384C150.611 168.117 151.078 168.017 151.679 168.083C152.346 168.083 152.847 167.917 153.18 167.583C153.714 167.049 154.081 166.348 154.281 165.481C154.548 164.547 154.949 163.746 155.482 163.079C156.016 162.411 156.617 161.877 157.284 161.477C158.018 161.077 158.652 160.61 159.186 160.076C159.586 159.675 159.987 159.175 160.387 158.574C160.854 157.974 161.321 157.406 161.789 156.873C162.322 156.272 162.923 155.805 163.59 155.471C164.258 155.071 165.058 154.871 165.993 154.871H166.693C166.16 156.205 165.392 157.373 164.391 158.374C163.457 159.375 162.489 160.443 161.488 161.577L154.682 169.084C153.948 169.885 153.28 171.02 152.68 172.488C152.079 173.956 151.278 175.291 150.277 176.492C149.944 176.825 149.477 177.159 148.876 177.493C148.275 177.826 147.742 178.26 147.274 178.794C146.54 179.528 146.007 180.162 145.673 180.696C145.406 181.23 144.939 181.83 144.271 182.498C143.871 182.831 143.337 183.065 142.67 183.198C142.069 183.265 141.369 183.532 140.568 183.999C140.301 184.132 140.134 184.433 140.067 184.9C140.067 185.3 139.901 185.5 139.567 185.5C139.433 185.5 139.267 185.467 139.066 185.4C138.933 185.4 138.799 185.4 138.666 185.4C138.332 185.4 137.999 185.601 137.665 186.001C137.398 186.468 137.098 186.802 136.764 187.002C135.696 187.402 134.395 187.636 132.86 187.703C131.326 187.836 129.891 188.103 128.556 188.503C127.021 188.904 125.119 189.104 122.851 189.104C120.715 189.104 118.613 188.937 116.544 188.604C114.476 188.27 112.774 187.736 111.439 187.002C109.838 186.134 107.869 185.234 105.534 184.299C103.265 183.365 101.229 182.264 99.4277 180.996C99.2943 180.863 99.1608 180.596 99.0273 180.195C98.8939 179.795 98.7604 179.595 98.627 179.595C98.1598 179.328 97.6927 179.161 97.2256 179.094C96.7585 178.961 96.258 178.594 95.7241 177.993C95.1903 177.393 94.623 176.492 94.0225 175.291C93.4219 174.023 92.7212 172.922 91.9204 171.987C90.519 170.452 89.5514 168.284 89.0176 165.481C88.4837 162.611 87.9499 159.575 87.416 156.372C87.416 156.239 87.2826 156.038 87.0156 155.771C86.8154 155.505 86.7153 155.204 86.7153 154.871C86.7153 154.403 86.6152 153.736 86.415 152.869C86.2816 152.001 86.1147 151.067 85.9146 150.066C85.7811 148.998 85.6143 147.964 85.4141 146.963C85.2806 145.962 85.2139 145.094 85.2139 144.36C85.2139 143.76 85.314 143.059 85.5142 142.258C85.7144 141.458 85.8478 140.69 85.9146 139.956C86.1147 138.154 86.2816 136.286 86.415 134.351C86.6152 132.349 86.8488 130.38 87.1157 128.445C87.3826 126.443 87.7163 124.541 88.1167 122.739C88.5171 120.871 89.0509 119.136 89.7183 117.534V117.434C89.7183 117.301 89.6849 117.134 89.6182 116.934C89.6182 116.667 89.6182 116.466 89.6182 116.333C89.6182 116.133 89.6515 115.999 89.7183 115.933C90.1854 115.599 90.4523 115.132 90.519 114.531C90.5858 113.864 90.8193 113.13 91.2197 112.329C91.3532 111.862 91.6535 111.395 92.1206 110.928C92.6545 110.394 93.0882 109.827 93.4219 109.226C93.7555 108.692 94.0225 108.025 94.2227 107.224C94.4896 106.423 94.7231 105.856 94.9233 105.522C95.4572 104.788 96.2246 103.988 97.2256 103.12C98.2933 102.186 99.2943 101.252 100.229 100.317C101.897 98.5824 103.532 96.8807 105.133 95.2124C106.802 93.4774 108.637 91.709 110.639 89.9072C112.507 88.1722 114.376 86.604 116.244 85.2026C118.113 83.8013 119.981 82.3665 121.85 80.8984C122.45 80.4313 122.817 79.8975 122.951 79.2969C123.151 78.6963 123.518 78.2292 124.052 77.8955C125.186 76.9613 126.688 76.0938 128.556 75.293C130.491 74.4922 132.26 73.6247 133.861 72.6904C134.262 72.4902 134.729 72.1899 135.263 71.7896C135.863 71.3224 136.431 70.8887 136.964 70.4883C137.498 70.0212 138.032 69.6541 138.566 69.3872C139.1 69.0535 139.567 68.8867 139.967 68.8867C140.101 68.8867 140.268 68.9201 140.468 68.9868C140.668 68.9868 140.835 68.9868 140.968 68.9868C141.302 68.9868 141.769 68.7866 142.37 68.3862C142.97 67.9858 143.671 67.7856 144.472 67.7856C145.406 67.7856 146.44 67.9191 147.575 68.186C148.709 68.453 149.81 68.7533 150.878 69.0869C152.012 69.4206 153.047 69.7876 153.981 70.188C154.915 70.5884 155.683 70.8887 156.283 71.0889C156.884 71.3558 157.318 71.4893 157.584 71.4893C157.851 71.4893 158.252 71.556 158.786 71.6895C159.319 71.7562 160.154 72.0231 161.288 72.4902C162.489 72.9574 164.291 73.7581 166.693 74.8926C166.96 75.026 167.394 75.1595 167.995 75.293C168.662 75.4264 169.329 75.5599 169.997 75.6934C170.664 75.8268 171.231 76.027 171.698 76.2939C172.232 76.4941 172.566 76.7611 172.699 77.0947Z" fill="white"/>
</svg>
